
<?xml version="1.0" encoding="utf-8"?>
<!-- Generator: Adobe Illustrator 25.2.0, SVG Export Plug-In . SVG Version: 6.00 Build 0)  -->
<svg version="1.1" id="Calque_1" xmlns="http://www.w3.org/2000/svg" xmlns:xlink="http://www.w3.org/1999/xlink" x="0px" y="0px"
	 viewBox="0 0 144 144" style="enable-background:new 0 0 144 144;" xml:space="preserve">
<style type="text/css">
	.st0{fill:#FFFFFF;}
</style>
<g>
	
		<image style="overflow:visible;opacity:0.75;" width="148" height="110" xlink:href="6979ADD.png"  transform="matrix(1 0 0 1 -3 10)">
	</image>
	<g>
		<path class="st0" d="M127.4,39.8c-1.7-2.3-4.3-3.6-7.2-3.6H58.8c-0.8,0-1.4,0.6-1.4,1.4S58,39,58.8,39h61.4c1.9,0,3.7,0.9,4.9,2.4
			c1.2,1.5,1.5,3.5,1,5.4l-10.4,35.8c-0.5,1.7-2,2.8-3.8,2.8H54.1L38.5,35c-1.8-5.7-6.9-9.5-12.9-9.5H13.8c-0.8,0-1.4,0.6-1.4,1.4
			s0.6,1.4,1.4,1.4h11.8c4.7,0,8.8,3,10.1,7.5l21,68c0.2,0.6,0.7,1,1.4,1H116c0.8,0,1.4-0.6,1.4-1.4s-0.6-1.4-1.4-1.4H59.2L55,88.4
			h57c3,0,5.7-2,6.5-4.9l10.4-35.8C129.7,45,129.2,42.1,127.4,39.8z"/>
	</g>
</g>
<g>
	
		<image style="overflow:visible;opacity:0.75;" width="50" height="51" xlink:href="6979ADF.png"  transform="matrix(1 0 0 1 35 94)">
	</image>
	<g>
		<g>
			<path class="st0" d="M60.2,129.1c-5.3,0-9.6-4.3-9.6-9.6s4.3-9.6,9.6-9.6s9.6,4.3,9.6,9.6S65.5,129.1,60.2,129.1z M60.2,112.7
				c-3.7,0-6.8,3-6.8,6.8s3,6.8,6.8,6.8s6.8-3,6.8-6.8S63.9,112.7,60.2,112.7z"/>
		</g>
		<g>
			<path class="st0" d="M60.2,129.1c-5.3,0-9.6-4.3-9.6-9.6s4.3-9.6,9.6-9.6s9.6,4.3,9.6,9.6S65.5,129.1,60.2,129.1z M60.2,112.7
				c-3.7,0-6.8,3-6.8,6.8s3,6.8,6.8,6.8s6.8-3,6.8-6.8S63.9,112.7,60.2,112.7z"/>
		</g>
	</g>
</g>
<g>
	
		<image style="overflow:visible;opacity:0.75;" width="50" height="51" xlink:href="6979ADA.png"  transform="matrix(1 0 0 1 83 94)">
	</image>
	<g>
		<g>
			<path class="st0" d="M107.8,129.1c-5.3,0-9.6-4.3-9.6-9.6s4.3-9.6,9.6-9.6s9.6,4.3,9.6,9.6S113.1,129.1,107.8,129.1z
				 M107.8,112.7c-3.7,0-6.8,3-6.8,6.8s3,6.8,6.8,6.8s6.8-3,6.8-6.8S111.5,112.7,107.8,112.7z"/>
		</g>
		<g>
			<path class="st0" d="M107.8,129.1c-5.3,0-9.6-4.3-9.6-9.6s4.3-9.6,9.6-9.6s9.6,4.3,9.6,9.6S113.1,129.1,107.8,129.1z
				 M107.8,112.7c-3.7,0-6.8,3-6.8,6.8s3,6.8,6.8,6.8s6.8-3,6.8-6.8S111.5,112.7,107.8,112.7z"/>
		</g>
	</g>
</g>
</svg>
